<svg width="28" height="28" viewBox="0 0 28 28" fill="none" xmlns="http://www.w3.org/2000/svg">
<path d="M14 10.5C14.3306 10.5 14.6076 10.3882 14.8313 10.1645C15.0549 9.94093 15.1667 9.66385 15.1667 9.33329C15.1667 9.00274 15.0549 8.72565 14.8313 8.50204C14.6076 8.27843 14.3306 8.16663 14 8.16663C13.6694 8.16663 13.3924 8.27843 13.1688 8.50204C12.9451 8.72565 12.8333 9.00274 12.8333 9.33329C12.8333 9.66385 12.9451 9.94093 13.1688 10.1645C13.3924 10.3882 13.6694 10.5 14 10.5ZM14 17.5C13.2417 17.5 12.5563 17.2909 11.9438 16.8729C11.3313 16.4548 10.8889 15.9055 10.6167 15.225C10.5194 15.225 10.4319 15.2298 10.3542 15.2395C10.2764 15.2493 10.1889 15.2541 10.0917 15.2541C9.08056 15.2541 8.21528 14.8944 7.49583 14.175C6.77639 13.4555 6.41667 12.5902 6.41667 11.5791C6.41667 11.1708 6.48472 10.777 6.62083 10.3979C6.75694 10.0187 6.96111 9.66385 7.23333 9.33329C6.98056 9.00274 6.78611 8.64788 6.65 8.26871C6.51389 7.88954 6.44583 7.49579 6.44583 7.08746C6.44583 6.07635 6.80069 5.21107 7.51042 4.49163C8.22014 3.77218 9.08056 3.41246 10.0917 3.41246C10.1889 3.41246 10.2764 3.41732 10.3542 3.42704C10.4319 3.43676 10.5194 3.44163 10.6167 3.44163C10.8889 2.76107 11.3313 2.21176 11.9438 1.79371C12.5563 1.37565 13.2417 1.16663 14 1.16663C14.7583 1.16663 15.4438 1.37565 16.0563 1.79371C16.6688 2.21176 17.1111 2.76107 17.3833 3.44163C17.4806 3.44163 17.5681 3.43676 17.6458 3.42704C17.7236 3.41732 17.8111 3.41246 17.9083 3.41246C18.9194 3.41246 19.7799 3.77218 20.4896 4.49163C21.1993 5.21107 21.5542 6.07635 21.5542 7.08746C21.5542 7.49579 21.491 7.88954 21.3646 8.26871C21.2382 8.64788 21.0389 9.00274 20.7667 9.33329C21.0194 9.66385 21.2139 10.0187 21.35 10.3979C21.4861 10.777 21.5542 11.1708 21.5542 11.5791C21.5542 12.5902 21.1993 13.4555 20.4896 14.175C19.7799 14.8944 18.9194 15.2541 17.9083 15.2541C17.8111 15.2541 17.7236 15.2493 17.6458 15.2395C17.5681 15.2298 17.4806 15.225 17.3833 15.225C17.1111 15.9055 16.6688 16.4548 16.0563 16.8729C15.4438 17.2909 14.7583 17.5 14 17.5ZM14 25.6666C14 24.2277 14.2771 22.8715 14.8313 21.5979C15.3854 20.3243 16.1389 19.2111 17.0917 18.2583C18.0444 17.3055 19.1576 16.552 20.4313 15.9979C21.7049 15.4437 23.0611 15.1666 24.5 15.1666C24.5 16.6055 24.2229 17.9618 23.6688 19.2354C23.1146 20.509 22.3611 21.6222 21.4083 22.575C20.4556 23.5277 19.3424 24.2812 18.0688 24.8354C16.7951 25.3895 15.4389 25.6666 14 25.6666ZM16.8583 22.8083C17.9667 22.4 18.9389 21.7777 19.775 20.9416C20.6111 20.1055 21.2333 19.1333 21.6417 18.025C20.5333 18.4333 19.5611 19.0555 18.725 19.8916C17.8889 20.7277 17.2667 21.7 16.8583 22.8083ZM14 25.6666C14 24.2277 13.7229 22.8715 13.1688 21.5979C12.6146 20.3243 11.8611 19.2111 10.9083 18.2583C9.95556 17.3055 8.84236 16.552 7.56875 15.9979C6.29514 15.4437 4.93889 15.1666 3.5 15.1666C3.5 16.6055 3.77708 17.9618 4.33125 19.2354C4.88542 20.509 5.63889 21.6222 6.59167 22.575C7.54444 23.5277 8.65764 24.2812 9.93125 24.8354C11.2049 25.3895 12.5611 25.6666 14 25.6666ZM11.1417 22.8083C10.0333 22.4 9.06111 21.7777 8.225 20.9416C7.38889 20.1055 6.76667 19.1333 6.35833 18.025C7.46667 18.4333 8.43889 19.0555 9.275 19.8916C10.1111 20.7277 10.7333 21.7 11.1417 22.8083ZM17.9083 12.9208C18.2778 12.9208 18.5938 12.7895 18.8563 12.527C19.1188 12.2645 19.25 11.9486 19.25 11.5791C19.25 11.3069 19.1771 11.0687 19.0313 10.8645C18.8854 10.6604 18.6958 10.5 18.4625 10.3833L17.4417 9.88746C17.4028 10.1013 17.3444 10.3104 17.2667 10.5145C17.1889 10.7187 17.1014 10.9083 17.0042 11.0833C16.9069 11.2583 16.7903 11.4236 16.6542 11.5791C16.5181 11.7347 16.3722 11.8805 16.2167 12.0166L17.15 12.6875C17.2472 12.7652 17.359 12.8236 17.4854 12.8625C17.6118 12.9013 17.7528 12.9208 17.9083 12.9208ZM17.4417 8.77913L18.4625 8.28329C18.6958 8.16663 18.8806 8.00135 19.0167 7.78746C19.1528 7.57357 19.2208 7.34024 19.2208 7.08746C19.2208 6.71801 19.0944 6.40204 18.8417 6.13954C18.5889 5.87704 18.2778 5.74579 17.9083 5.74579C17.7528 5.74579 17.6167 5.76524 17.5 5.80413C17.3833 5.84301 17.2667 5.90135 17.15 5.97913L16.1875 6.64996C16.3431 6.78607 16.4938 6.9319 16.6396 7.08746C16.7854 7.24301 16.9069 7.40829 17.0042 7.58329C17.1014 7.75829 17.1889 7.94788 17.2667 8.15204C17.3444 8.35621 17.4028 8.56524 17.4417 8.77913ZM12.8042 6.06663C12.9986 5.98885 13.1931 5.93051 13.3875 5.89163C13.5819 5.85274 13.7861 5.83329 14 5.83329C14.2139 5.83329 14.4181 5.85274 14.6125 5.89163C14.8069 5.93051 15.0014 5.98885 15.1958 6.06663L15.3417 4.78329C15.3806 4.43329 15.259 4.1319 14.9771 3.87913C14.6951 3.62635 14.3694 3.49996 14 3.49996C13.6306 3.49996 13.3049 3.62635 13.0229 3.87913C12.741 4.1319 12.6194 4.43329 12.6583 4.78329L12.8042 6.06663ZM14 15.1666C14.3694 15.1666 14.6951 15.0402 14.9771 14.7875C15.259 14.5347 15.3806 14.2333 15.3417 13.8833L15.1958 12.6C15.0014 12.6777 14.8069 12.7361 14.6125 12.775C14.4181 12.8138 14.2139 12.8333 14 12.8333C13.7861 12.8333 13.5819 12.8138 13.3875 12.775C13.1931 12.7361 12.9986 12.6777 12.8042 12.6L12.6583 13.8833C12.6194 14.2333 12.741 14.5347 13.0229 14.7875C13.3049 15.0402 13.6306 15.1666 14 15.1666ZM10.5583 8.77913C10.5972 8.56524 10.6556 8.35621 10.7333 8.15204C10.8111 7.94788 10.8986 7.75829 10.9958 7.58329C11.0931 7.40829 11.2097 7.24301 11.3458 7.08746C11.4819 6.9319 11.6278 6.78607 11.7833 6.64996L10.85 5.97913C10.7528 5.90135 10.641 5.84301 10.5146 5.80413C10.3882 5.76524 10.2472 5.74579 10.0917 5.74579C9.72222 5.74579 9.40625 5.87704 9.14375 6.13954C8.88125 6.40204 8.75 6.71801 8.75 7.08746C8.75 7.34024 8.82292 7.57357 8.96875 7.78746C9.11458 8.00135 9.30417 8.16663 9.5375 8.28329L10.5583 8.77913ZM10.0917 12.8916C10.2472 12.8916 10.3833 12.877 10.5 12.8479C10.6167 12.8187 10.7333 12.7555 10.85 12.6583L11.8125 12.0166C11.6569 11.8805 11.5063 11.7347 11.3604 11.5791C11.2146 11.4236 11.0931 11.2583 10.9958 11.0833C10.8986 10.9083 10.8111 10.7187 10.7333 10.5145C10.6556 10.3104 10.5972 10.1013 10.5583 9.88746L9.5375 10.3833C9.30417 10.5 9.11944 10.6652 8.98333 10.8791C8.84722 11.093 8.77917 11.3263 8.77917 11.5791C8.79861 11.9486 8.92986 12.2597 9.17292 12.5125C9.41597 12.7652 9.72222 12.8916 10.0917 12.8916Z" fill="#C5A8E0"/>
</svg>
